HIERARCHY
ROOT hip
{
	OFFSET 0.000000 0.000000 0.000000 
	CHANNELS 6 Xposition Yposition Zposition Xrotation Zrotation Yrotation
	JOINT abdomen
	{
		OFFSET 0.000000 3.402643 0.000000 
		CHANNELS 3 Xrotation Zrotation Yrotation
		JOINT chest
		{
			OFFSET 0.000000 8.438565 -0.680529 
			CHANNELS 3 Xrotation Zrotation Yrotation
			JOINT neck
			{
				OFFSET 0.000000 10.207942 -0.272212 
				CHANNELS 3 Xrotation Zrotation Yrotation
				JOINT head
				{
					OFFSET 0.000000 3.130431 0.000000 
					CHANNELS 3 Xrotation Zrotation Yrotation
					End Site
					{
						OFFSET 0.000000 3.130435 0.000000 
					}
				}
			}
			JOINT lCollar
			{
				OFFSET 3.470700 6.669187 -0.816635 
				CHANNELS 3 Yrotation Zrotation Xrotation
				JOINT lShldr
				{
					OFFSET 3.198488 0.000000 0.000000 
					CHANNELS 3 Zrotation Yrotation Xrotation
					JOINT lForeArm
					{
						OFFSET 10.139888 0.000000 0.000000 
						CHANNELS 3 Yrotation Zrotation Xrotation
						JOINT lHand
						{
							OFFSET 8.370511 0.000000 0.000000 
							CHANNELS 3 Zrotation Yrotation Xrotation
							End Site
							{
								OFFSET 4.083176 0.000000 0.000000 
							}
						}
					}
				}
			}
			JOINT rCollar
			{
				OFFSET -3.470700 6.669187 -0.816635 
				CHANNELS 3 Yrotation Zrotation Xrotation
				JOINT rShldr
				{
					OFFSET -3.198488 0.000000 0.000000 
					CHANNELS 3 Zrotation Yrotation Xrotation
					JOINT rForeArm
					{
						OFFSET -10.139888 0.000000 0.000000 
						CHANNELS 3 Yrotation Zrotation Xrotation
						JOINT rHand
						{
							OFFSET -8.370511 0.000000 0.000000 
							CHANNELS 3 Zrotation Yrotation Xrotation
							End Site
							{
								OFFSET -4.083176 0.000000 0.000000 
							}
						}
					}
				}
			}
		}
	}
	JOINT lThigh
	{
		OFFSET 5.308129 -1.633274 1.361059 
		CHANNELS 3 Xrotation Zrotation Yrotation
		JOINT lShin
		{
			OFFSET -2.041588 -20.007561 0.000000 
			CHANNELS 3 Xrotation Zrotation Yrotation
			JOINT lFoot
			{
				OFFSET 0.000000 -19.190928 -1.224953 
				CHANNELS 3 Xrotation Yrotation Zrotation
				End Site
				{
					OFFSET 0.000000 -2.449906 4.627600 
				}
			}
		}
	}
	JOINT rThigh
	{
		OFFSET -5.308129 -1.633274 1.361059 
		CHANNELS 3 Xrotation Zrotation Yrotation
		JOINT rShin
		{
			OFFSET 2.041588 -20.007561 0.000000 
			CHANNELS 3 Xrotation Zrotation Yrotation
			JOINT rFoot
			{
				OFFSET 0.000000 -19.190928 -1.224953 
				CHANNELS 3 Xrotation Yrotation Zrotation
				End Site
				{
					OFFSET 0.000000 -2.449906 4.627600 
				}
			}
		}
	}
}
MOTION
Frames: 18
Frame Time: 0.016667
3.244715 52.942703 30.893967 49.330765 -2.804259 8.036778 5.019107 -0.166015 0.146484 81.244789 3.320026 0.753519 2.247178 2.400808 -5.551399 -56.031898 2.020205 -5.980064 -12.341994 27.457752 5.759512 24.886127 -47.646629 -91.089973 -42.968025 -20.777790 35.419319 32.362686 1.492562 -15.023603 24.523468 -29.835079 18.815069 -9.649325 36.502956 -83.975342 39.492306 14.189969 37.349834 -55.238483 -0.992883 -3.791884 -30.549162 28.089191 0.378766 34.082306 -6.085834 -11.773371 -19.128553 -3.884671 -1.235933 -39.138695 -29.002380 -3.610055 40.385590 -6.277849 7.788124 -15.501619 -1.049828 2.788546 
3.095146 51.269630 29.660372 42.248947 -2.086534 8.442886 5.019107 -0.166015 0.146484 83.049072 3.076011 0.587189 2.234575 2.429967 -5.551809 -54.813931 2.243711 -5.951483 -12.894491 26.437027 5.816725 22.521967 -49.456890 -83.541374 -47.887150 -22.525928 33.030392 29.619364 1.840880 -14.894421 25.588167 -27.828026 18.704966 -7.035705 36.724762 -75.598328 43.330559 15.175876 37.488060 -47.435577 -1.275090 -3.650178 -31.264078 27.768824 0.326193 37.639812 -5.764057 -12.066400 -20.686018 -3.892074 -1.205295 -39.592613 -28.715199 -3.591234 42.967999 -6.376797 7.388092 -16.439194 -1.056692 2.784785 
2.945596 49.596188 28.426960 35.177299 -1.322317 8.752159 5.019107 -0.166015 0.146484 84.853722 2.822196 0.401347 2.211261 2.468847 -5.551805 -53.605522 2.467241 -5.923394 -13.440861 25.426378 5.861837 19.703541 -51.040215 -75.596626 -52.942348 -24.079515 30.455311 26.876810 2.189484 -14.782630 26.623743 -25.834932 18.539766 -4.404030 36.642254 -67.215164 47.188728 16.177273 37.565701 -39.634026 -1.574748 -3.553096 -31.969687 27.438963 0.272063 41.170784 -5.419722 -12.313786 -22.237217 -3.901628 -1.198246 -40.043068 -28.442896 -3.564589 45.540577 -6.463218 6.985881 -17.366806 -1.086390 2.790228 
2.804961 47.750832 27.280943 28.797564 -0.636895 8.828662 5.019107 -0.166015 0.146484 85.907799 2.363281 -0.009757 1.734801 2.643759 -5.562418 -52.598713 2.662663 -5.679931 -13.087395 25.065176 5.626716 17.273273 -52.354214 -69.054939 -58.719124 -25.556879 28.372719 24.793146 2.868930 -14.683488 27.223166 -25.027433 18.552231 -2.437919 36.109623 -60.294136 52.129475 17.155872 38.125111 -35.264900 -1.815638 -3.393536 -32.890541 27.031189 0.221462 46.159721 -4.082292 -12.342100 -24.052603 -3.912044 -1.191718 -40.790447 -27.948843 -3.543815 49.815414 -7.517233 6.341697 -18.655878 -1.086924 2.789588 
2.664383 45.905743 26.135254 22.430866 0.057900 8.828132 5.019107 -0.166015 0.146484 86.958122 1.894476 -0.439536 1.256844 2.828338 -5.582850 -51.589333 2.848479 -5.436062 -12.741553 24.699699 5.400021 14.543677 -53.473141 -62.254585 -64.617836 -26.849577 26.108240 22.709787 3.554529 -14.616976 27.818792 -24.230446 18.555536 -0.584960 35.387806 -53.465878 57.095081 18.181810 38.587246 -30.894291 -2.078452 -3.241008 -33.802071 26.616173 0.176476 51.113621 -2.739195 -12.253689 -25.866074 -3.902335 -1.196157 -41.503307 -27.460590 -3.521900 54.126415 -8.524269 5.620003 -19.925413 -1.085262 2.790131 
2.550262 44.188133 25.140984 17.174385 0.560061 8.584430 5.019107 -0.166015 0.146484 87.527130 1.298647 -0.957228 0.330608 3.090552 -5.623362 -51.147995 2.967216 -4.996670 -12.080090 25.079437 5.185323 12.828348 -53.957294 -58.427734 -70.588219 -27.769041 24.473173 21.406359 4.121715 -14.576554 28.061640 -24.269985 18.697279 0.247139 34.331444 -49.611790 62.427444 18.918835 39.182575 -28.718237 -1.795793 -3.192568 -34.974255 26.265083 0.088456 56.724777 -0.532283 -11.820940 -27.448349 -3.892976 -1.213711 -42.556202 -26.814829 -3.483411 59.183506 -10.369573 4.871445 -21.097052 -1.063156 2.803282 
2.436223 42.471375 24.147100 11.928040 1.034000 8.292477 5.019107 -0.166015 0.146484 88.097153 0.693124 -1.494149 -0.595999 3.352729 -5.664006 -50.715134 3.085892 -4.567062 -11.409411 25.446777 4.952505 11.041826 -54.377266 -54.541702 -76.621445 -28.541496 22.738359 20.115940 4.701336 -14.553623 28.292076 -24.315939 18.831812 0.989829 33.230072 -45.823330 67.783119 19.711124 39.696743 -26.532444 -1.510788 -3.132114 -36.161877 25.917866 0.016081 62.343933 1.607195 -11.176681 -29.048136 -3.896971 -1.207220 -43.599895 -26.169640 -3.449347 64.299767 -12.136792 3.988776 -22.278488 -1.064065 2.814063 
2.358646 41.142834 23.331089 8.007309 1.334894 7.892792 5.019107 -0.166015 0.146484 88.405029 0.087833 -2.070310 -1.600983 3.400914 -5.732241 -51.208324 3.418522 -4.206291 -11.005823 26.158447 4.888623 10.361425 -54.050632 -53.917965 -81.588165 -28.861956 21.506308 19.458979 4.894848 -14.602859 28.449451 -25.104383 19.235342 0.858324 31.950871 -45.166393 72.353287 20.086790 40.116261 -25.508558 -1.082820 -3.151727 -37.194981 25.662617 -0.013967 67.219429 3.850265 -10.438487 -30.025511 -3.893490 -1.202403 -44.564255 -25.552933 -3.411721 68.643883 -13.991755 3.406562 -22.952438 -1.056763 2.807353 
2.281170 39.815369 22.515429 4.076746 1.597647 7.473772 5.019107 -0.166015 0.146484 88.715393 -0.517022 -2.656406 -2.614273 3.439427 -5.791306 -51.709034 3.760979 -3.865757 -10.600314 26.868975 4.829332 9.697185 -53.711456 -53.304352 -86.568863 -29.085018 20.249174 18.808121 5.099007 -14.654632 28.612253 -25.886518 19.635136 0.709704 30.667423 -44.518112 76.932396 20.493652 40.501316 -24.484232 -0.653919 -3.178986 -38.236275 25.406446 -0.061085 72.147781 6.018573 -9.500380 -31.041018 -3.895230 -1.203288 -45.524170 -24.939556 -3.377619 73.045341 -15.810146 2.706588 -23.617081 -1.070815 2.775759 
2.250089 38.977943 21.861004 1.432355 1.715513 7.034514 5.019107 -0.166015 0.146484 88.709297 -1.023808 -3.184132 -3.414814 3.312834 -5.839489 -52.749187 4.259125 -3.613133 -10.872146 27.420053 5.048359 9.558847 -52.755306 -54.821510 -89.633850 -29.095425 19.504074 18.760998 5.047453 -14.785382 28.813726 -26.832451 20.129923 0.308676 29.358089 -46.042950 79.913635 20.610950 40.712887 -23.973919 -0.509363 -3.236316 -38.880302 25.220615 -0.076144 75.460266 7.600109 -8.729401 -31.492336 -3.906622 -1.232232 -46.155483 -24.420094 -3.342858 75.719727 -17.108473 2.554018 -23.733809 -1.084275 2.801075 
2.219118 38.141514 21.206884 -1.207433 1.804394 6.595278 5.019107 -0.166015 0.146484 88.713165 -1.539733 -3.712482 -4.215142 3.186261 -5.887699 -53.795765 4.747621 -3.380199 -11.148740 27.969740 5.267644 9.375640 -51.796001 -56.319511 -92.695930 -29.071730 18.762541 18.723637 4.998217 -14.916069 29.030319 -27.780300 20.627729 -0.037472 28.048946 -47.541729 82.889236 20.728159 40.940781 -23.472961 -0.377237 -3.296215 -39.546463 25.046209 -0.095268 78.764954 9.150634 -7.908193 -31.887424 -3.900800 -1.223131 -46.785145 -23.914909 -3.351781 78.410393 -18.415554 2.322836 -23.870285 -1.063280 2.814497 
2.238938 37.754169 20.689127 -2.910120 1.805874 6.175261 5.019107 -0.166015 0.146484 88.381676 -1.899183 -4.201762 -4.758213 2.865695 -5.886176 -54.765198 5.410957 -3.304882 -11.822281 28.041124 5.613975 9.093655 -50.784435 -58.338879 -93.892868 -29.024782 18.565399 19.245415 4.986500 -15.130385 29.216097 -28.359819 20.959246 -0.188028 27.142839 -50.014744 84.178169 20.751448 41.155792 -22.809956 -0.541603 -3.353081 -39.670059 24.936735 -0.093372 80.350952 9.922973 -7.423902 -31.915247 -3.915921 -1.235808 -46.898678 -23.551697 -3.304802 79.332245 -19.090557 2.609707 -23.675316 -1.075046 2.795666 
2.258867 37.367611 20.171642 -4.604032 1.797541 5.754933 5.019107 -0.166015 0.146484 88.046982 -2.267808 -4.681791 -5.301736 2.545084 -5.894117 -55.725204 6.074269 -3.250422 -12.505898 28.105379 5.958688 8.776349 -49.778111 -60.339005 -95.085594 -28.964729 18.376179 19.764942 4.987939 -15.342640 29.402376 -28.926781 21.306393 -0.293965 26.231222 -52.476307 85.470901 20.761711 41.379128 -22.137220 -0.695055 -3.417960 -39.795574 24.828445 -0.120207 81.943336 10.684524 -6.897976 -31.933645 -3.923266 -1.253923 -47.008144 -23.211187 -3.282269 80.247490 -19.773090 2.915284 -23.499325 -1.075000 2.807050 
2.327637 37.329243 19.774532 -5.659051 1.720979 5.354127 5.019107 -0.166015 0.146484 87.255699 -2.519325 -5.092833 -5.559826 2.214885 -5.873421 -56.165905 6.688769 -3.214824 -13.336928 27.628284 6.266091 7.847741 -49.012920 -61.663147 -95.245743 -28.949415 18.627581 20.579470 5.106761 -15.580556 29.480015 -28.824577 21.315413 0.107525 26.048906 -54.853287 85.895889 20.738779 41.781971 -21.051668 -1.031858 -3.412124 -39.452427 24.872742 -0.131507 82.241348 10.722147 -6.806405 -31.779764 -3.900023 -1.205876 -46.642155 -23.013134 -3.257992 79.855408 -19.909168 3.614475 -23.118576 -1.066212 2.801307 
2.396514 37.291454 19.377676 -6.714112 1.634526 4.943569 5.019107 -0.166015 0.146484 86.468979 -2.780110 -5.504819 -5.817160 1.874948 -5.852537 -56.597878 7.312992 -3.189264 -14.174274 27.130337 6.579573 6.916955 -48.256645 -62.996899 -95.409454 -28.925093 18.873598 21.393335 5.233432 -15.818996 29.557165 -28.715164 21.311110 0.520293 25.879629 -57.232864 86.324036 20.710257 42.186989 -19.955599 -1.365019 -3.411161 -39.086357 24.908768 -0.122772 82.537590 10.801218 -6.691921 -31.652388 -3.883140 -1.222603 -46.281658 -22.828056 -3.238504 79.460808 -20.048052 4.346156 -22.767153 -1.079817 2.792858 
2.512356 37.510979 19.095222 -7.431015 1.489490 4.523253 5.019107 -0.166015 0.146484 85.201187 -2.914419 -5.857409 -5.763393 1.641852 -5.832433 -56.632996 7.899473 -2.996923 -14.883907 26.103163 6.663848 5.020348 -47.746689 -62.935452 -95.658424 -28.881701 19.257977 22.167711 5.386172 -15.900542 29.484762 -27.787066 20.893387 1.644722 26.410557 -58.651695 86.973907 20.681221 42.804672 -18.806824 -1.756459 -3.332631 -38.199577 25.124741 -0.087347 81.983047 10.264744 -6.794285 -31.355982 -3.898490 -1.208300 -45.393036 -22.857302 -3.199764 78.070114 -19.665531 5.369722 -22.210707 -1.058841 2.783367 
2.628295 37.730949 18.813025 -8.146479 1.334464 4.102722 5.019107 -0.166015 0.146484 83.936638 -3.058099 -6.220293 -5.709551 1.408763 -5.802383 -56.665585 8.485998 -2.813234 -15.579709 25.073786 6.744303 3.144151 -47.227875 -62.903687 -95.918617 -28.832083 19.645943 22.940125 5.546875 -15.967084 29.428089 -26.850172 20.472803 2.768895 26.954033 -60.065708 87.633072 20.644102 43.414013 -17.657593 -2.157668 -3.258387 -37.307693 25.347128 -0.052110 81.381729 9.706806 -6.890228 -31.058168 -3.925399 -1.203077 -44.508556 -22.888948 -3.180381 76.705193 -19.275780 6.395768 -21.663424 -1.060580 2.804902 
2.785742 38.146969 18.642790 -8.699977 1.101322 3.614115 5.019107 -0.166015 0.146484 82.214218 -3.095644 -6.435350 -5.522686 1.301914 -5.792401 -56.281933 8.918808 -2.283074 -16.112907 23.582718 6.590625 0.199643 -46.584679 -61.256565 -97.074860 -28.741863 19.731050 23.304287 5.504333 -15.759190 29.114037 -25.148951 19.599920 4.801970 27.816204 -59.603729 89.301735 20.596346 43.872818 -16.894592 -2.810382 -3.155760 -35.865604 25.739815 0.007322 80.125458 8.682686 -7.095927 -30.584112 -3.918807 -1.234439 -43.043144 -23.064363 -3.149454 74.517525 -18.357649 7.709314 -20.892128 -1.077890 2.794406 
